M48
INCH,LZ
T1C0.0315
T2C0.0362
T3C0.0394
T4C0.0433
T5C0.0917
T6C0.1260
%
G90
G05
T1
X012598Y031953
X012598Y027953
T2
X007087Y030709
X007087Y029921
X008071Y030709
X008071Y029921
T3
X005378Y022783
X005378Y021783
X005512Y027559
X005884Y013858
X005884Y009858
X005884Y005858
X006512Y027559
X006884Y013858
X006884Y009858
X006884Y005858
X007512Y027559
X007884Y013858
X007884Y009858
X007884Y005858
X008884Y013858
X008884Y009858
X008884Y005858
X009884Y013858
X009884Y009858
X009884Y005858
X010602Y002358
X010884Y013858
X010884Y009858
X010884Y005858
X011602Y002358
X011884Y013858
X011884Y009858
X011884Y005858
X012602Y002358
X012884Y013858
X012884Y009858
X012884Y005858
T4
X004878Y025283
X004878Y019283
X005878Y025283
X005878Y019283
X006878Y025283
X006878Y019283
X007878Y025283
X007878Y019283
X008878Y025283
X008878Y019283
X009878Y025283
X009878Y019283
X010878Y025283
X010878Y019283
X011878Y025283
X011878Y019283
X012878Y025283
X012878Y019283
X013878Y025283
X013878Y019283
X014878Y025283
X014878Y019283
X014941Y031394
X014941Y030394
X014941Y029394
X015878Y025283
X015878Y019283
X016878Y025283
X016878Y019283
X017878Y025283
X017878Y019283
T5
X005209Y031776
X009949Y031776
T6
X001969Y031496
X001969Y001969
X020866Y031496
X020866Y001969
T0
M30
